<svg width="420" height="460" viewBox="0 0 420 460" fill="none" xmlns="http://www.w3.org/2000/svg">
  <path d="M203 378C174 280 139 213 88 139" stroke="#6EA56B" stroke-width="14" stroke-linecap="round"/>
  <path d="M210 379C214 279 215 210 205 108" stroke="#6EA56B" stroke-width="14" stroke-linecap="round"/>
  <path d="M220 377C252 286 287 220 338 152" stroke="#6EA56B" stroke-width="14" stroke-linecap="round"/>
  <path d="M163 393L256 393" stroke="#D9788D" stroke-width="10" stroke-linecap="round"/>
  <path d="M118 268L210 430L294 268C260 245 235 232 209 232C183 232 153 244 118 268Z" fill="#FFF1E8"/>
  <path d="M140 274L210 430L278 274" fill="#F6DCCF"/>

  <ellipse cx="111" cy="176" rx="24" ry="16" transform="rotate(-28 111 176)" fill="#8BC481"/>
  <ellipse cx="306" cy="186" rx="24" ry="16" transform="rotate(28 306 186)" fill="#8BC481"/>
  <ellipse cx="213" cy="205" rx="24" ry="16" transform="rotate(-8 213 205)" fill="#8BC481"/>
  <ellipse cx="165" cy="240" rx="24" ry="16" transform="rotate(24 165 240)" fill="#8BC481"/>
  <ellipse cx="257" cy="238" rx="24" ry="16" transform="rotate(-24 257 238)" fill="#8BC481"/>

  <g transform="translate(30 116)">
    <ellipse cx="44" cy="44" rx="22" ry="46" fill="#F6B3C8"/>
    <ellipse cx="44" cy="44" rx="22" ry="46" transform="rotate(60 44 44)" fill="#F8D0DD"/>
    <ellipse cx="44" cy="44" rx="22" ry="46" transform="rotate(120 44 44)" fill="#F3A8BF"/>
    <circle cx="44" cy="44" r="14" fill="#F1CA66"/>
  </g>

  <g transform="translate(262 130)">
    <ellipse cx="44" cy="44" rx="20" ry="44" fill="#FFFDF5"/>
    <ellipse cx="44" cy="44" rx="20" ry="44" transform="rotate(45 44 44)" fill="#FFF6D8"/>
    <ellipse cx="44" cy="44" rx="20" ry="44" transform="rotate(90 44 44)" fill="#FFFDF5"/>
    <ellipse cx="44" cy="44" rx="20" ry="44" transform="rotate(135 44 44)" fill="#FFF6D8"/>
    <circle cx="44" cy="44" r="13" fill="#EDC04B"/>
  </g>

  <g transform="translate(122 32)">
    <ellipse cx="58" cy="58" rx="26" ry="56" fill="#EA7D9E"/>
    <ellipse cx="58" cy="58" rx="26" ry="56" transform="rotate(72 58 58)" fill="#F2A8BC"/>
    <ellipse cx="58" cy="58" rx="26" ry="56" transform="rotate(144 58 58)" fill="#EA7D9E"/>
    <ellipse cx="58" cy="58" rx="26" ry="56" transform="rotate(216 58 58)" fill="#F2A8BC"/>
    <ellipse cx="58" cy="58" rx="26" ry="56" transform="rotate(288 58 58)" fill="#EA7D9E"/>
    <circle cx="58" cy="58" r="16" fill="#FFD39C"/>
  </g>

  <g transform="translate(206 82)">
    <ellipse cx="36" cy="36" rx="18" ry="38" fill="#FFFDF5"/>
    <ellipse cx="36" cy="36" rx="18" ry="38" transform="rotate(45 36 36)" fill="#FFF6D8"/>
    <ellipse cx="36" cy="36" rx="18" ry="38" transform="rotate(90 36 36)" fill="#FFFDF5"/>
    <ellipse cx="36" cy="36" rx="18" ry="38" transform="rotate(135 36 36)" fill="#FFF6D8"/>
    <circle cx="36" cy="36" r="11" fill="#EDC04B"/>
  </g>

  <g transform="translate(90 230)" opacity="0.85">
    <circle cx="16" cy="16" r="14" fill="#F7B8CD"/>
    <circle cx="180" cy="22" r="14" fill="#FFF7E2"/>
    <circle cx="112" cy="0" r="12" fill="#F2A8BC"/>
  </g>
</svg>
