<svg width="1200" height="220" viewBox="0 0 1200 220" fill="none" xmlns="http://www.w3.org/2000/svg">
  <g opacity="0.95">
    <path d="M163 153C122 143 95 116 81 75" stroke="#6EA56B" stroke-width="10" stroke-linecap="round"/>
    <path d="M163 153C193 125 213 92 221 48" stroke="#6EA56B" stroke-width="10" stroke-linecap="round"/>
    <path d="M602 176C567 152 542 126 526 88" stroke="#6EA56B" stroke-width="10" stroke-linecap="round"/>
    <path d="M602 176C640 155 675 126 700 84" stroke="#6EA56B" stroke-width="10" stroke-linecap="round"/>
    <path d="M1031 150C998 122 973 91 955 48" stroke="#6EA56B" stroke-width="10" stroke-linecap="round"/>
    <path d="M1031 150C1075 130 1108 101 1131 64" stroke="#6EA56B" stroke-width="10" stroke-linecap="round"/>
  </g>

  <g transform="translate(45 28)">
    <ellipse cx="30" cy="35" rx="22" ry="44" fill="#F7BDD1"/>
    <ellipse cx="30" cy="35" rx="22" ry="44" transform="rotate(60 30 35)" fill="#F6CFE0"/>
    <ellipse cx="30" cy="35" rx="22" ry="44" transform="rotate(120 30 35)" fill="#F3A8BF"/>
    <circle cx="30" cy="35" r="14" fill="#F3CF6C"/>
  </g>
  <g transform="translate(180 8)">
    <ellipse cx="34" cy="38" rx="18" ry="42" fill="#FFFDF5"/>
    <ellipse cx="34" cy="38" rx="18" ry="42" transform="rotate(45 34 38)" fill="#FFF7DA"/>
    <ellipse cx="34" cy="38" rx="18" ry="42" transform="rotate(90 34 38)" fill="#FFFDF5"/>
    <ellipse cx="34" cy="38" rx="18" ry="42" transform="rotate(135 34 38)" fill="#FFF7DA"/>
    <circle cx="34" cy="38" r="12" fill="#EDC454"/>
  </g>
  <g transform="translate(520 30)">
    <ellipse cx="36" cy="36" rx="24" ry="46" fill="#EA7D9E"/>
    <ellipse cx="36" cy="36" rx="24" ry="46" transform="rotate(72 36 36)" fill="#F2A8BC"/>
    <ellipse cx="36" cy="36" rx="24" ry="46" transform="rotate(144 36 36)" fill="#EA7D9E"/>
    <ellipse cx="36" cy="36" rx="24" ry="46" transform="rotate(216 36 36)" fill="#F2A8BC"/>
    <ellipse cx="36" cy="36" rx="24" ry="46" transform="rotate(288 36 36)" fill="#EA7D9E"/>
    <circle cx="36" cy="36" r="13" fill="#FFD39C"/>
  </g>
  <g transform="translate(657 2)">
    <ellipse cx="34" cy="38" rx="18" ry="42" fill="#FFFDF5"/>
    <ellipse cx="34" cy="38" rx="18" ry="42" transform="rotate(45 34 38)" fill="#FFF7DA"/>
    <ellipse cx="34" cy="38" rx="18" ry="42" transform="rotate(90 34 38)" fill="#FFFDF5"/>
    <ellipse cx="34" cy="38" rx="18" ry="42" transform="rotate(135 34 38)" fill="#FFF7DA"/>
    <circle cx="34" cy="38" r="12" fill="#EDC454"/>
  </g>
  <g transform="translate(940 26)">
    <ellipse cx="30" cy="35" rx="22" ry="44" fill="#F7BDD1"/>
    <ellipse cx="30" cy="35" rx="22" ry="44" transform="rotate(60 30 35)" fill="#F6CFE0"/>
    <ellipse cx="30" cy="35" rx="22" ry="44" transform="rotate(120 30 35)" fill="#F3A8BF"/>
    <circle cx="30" cy="35" r="14" fill="#F3CF6C"/>
  </g>
  <g transform="translate(1082 14)">
    <ellipse cx="34" cy="38" rx="18" ry="42" fill="#FFFDF5"/>
    <ellipse cx="34" cy="38" rx="18" ry="42" transform="rotate(45 34 38)" fill="#FFF7DA"/>
    <ellipse cx="34" cy="38" rx="18" ry="42" transform="rotate(90 34 38)" fill="#FFFDF5"/>
    <ellipse cx="34" cy="38" rx="18" ry="42" transform="rotate(135 34 38)" fill="#FFF7DA"/>
    <circle cx="34" cy="38" r="12" fill="#EDC454"/>
  </g>

  <g opacity="0.9">
    <ellipse cx="127" cy="110" rx="18" ry="11" transform="rotate(22 127 110)" fill="#87BF7D"/>
    <ellipse cx="208" cy="92" rx="18" ry="11" transform="rotate(-35 208 92)" fill="#87BF7D"/>
    <ellipse cx="566" cy="117" rx="18" ry="11" transform="rotate(-28 566 117)" fill="#87BF7D"/>
    <ellipse cx="683" cy="103" rx="18" ry="11" transform="rotate(31 683 103)" fill="#87BF7D"/>
    <ellipse cx="997" cy="100" rx="18" ry="11" transform="rotate(-26 997 100)" fill="#87BF7D"/>
    <ellipse cx="1112" cy="104" rx="18" ry="11" transform="rotate(32 1112 104)" fill="#87BF7D"/>
  </g>
</svg>
