<svg width="360" height="360" viewBox="0 0 360 360" fill="none" xmlns="http://www.w3.org/2000/svg">
  <path d="M186 317C165 247 132 191 85 130" stroke="#6EA56B" stroke-width="12" stroke-linecap="round"/>
  <path d="M187 318C208 248 236 193 282 138" stroke="#6EA56B" stroke-width="12" stroke-linecap="round"/>
  <path d="M188 320C186 245 191 174 208 96" stroke="#6EA56B" stroke-width="12" stroke-linecap="round"/>

  <ellipse cx="125" cy="162" rx="24" ry="16" transform="rotate(-28 125 162)" fill="#8AC281"/>
  <ellipse cx="238" cy="153" rx="24" ry="16" transform="rotate(28 238 153)" fill="#8AC281"/>
  <ellipse cx="205" cy="202" rx="24" ry="16" transform="rotate(-10 205 202)" fill="#8AC281"/>
  <ellipse cx="153" cy="211" rx="24" ry="16" transform="rotate(18 153 211)" fill="#8AC281"/>

  <g transform="translate(44 52)">
    <ellipse cx="46" cy="42" rx="22" ry="44" fill="#F6B3C8"/>
    <ellipse cx="46" cy="42" rx="22" ry="44" transform="rotate(60 46 42)" fill="#F8D0DD"/>
    <ellipse cx="46" cy="42" rx="22" ry="44" transform="rotate(120 46 42)" fill="#F3A8BF"/>
    <circle cx="46" cy="42" r="14" fill="#F2CA64"/>
  </g>

  <g transform="translate(198 58)">
    <ellipse cx="42" cy="42" rx="18" ry="44" fill="#FFFDF5"/>
    <ellipse cx="42" cy="42" rx="18" ry="44" transform="rotate(45 42 42)" fill="#FFF6D7"/>
    <ellipse cx="42" cy="42" rx="18" ry="44" transform="rotate(90 42 42)" fill="#FFFDF5"/>
    <ellipse cx="42" cy="42" rx="18" ry="44" transform="rotate(135 42 42)" fill="#FFF6D7"/>
    <circle cx="42" cy="42" r="12" fill="#EEC14B"/>
  </g>

  <g transform="translate(118 0)">
    <ellipse cx="56" cy="56" rx="26" ry="52" fill="#EA7D9E"/>
    <ellipse cx="56" cy="56" rx="26" ry="52" transform="rotate(72 56 56)" fill="#F1A8BD"/>
    <ellipse cx="56" cy="56" rx="26" ry="52" transform="rotate(144 56 56)" fill="#EA7D9E"/>
    <ellipse cx="56" cy="56" rx="26" ry="52" transform="rotate(216 56 56)" fill="#F1A8BD"/>
    <ellipse cx="56" cy="56" rx="26" ry="52" transform="rotate(288 56 56)" fill="#EA7D9E"/>
    <circle cx="56" cy="56" r="15" fill="#FFD39C"/>
  </g>
</svg>
